<svg preserveAspectRatio="none" width="100%" height="100%" overflow="visible" style="display: block;" viewBox="0 0 24.0025 22.5" fill="none" xmlns="http://www.w3.org/2000/svg">
<g id="Group">
<g id="Vector">
</g>
<path id="Vector_2" d="M7.786 6.2C6.161 4.413 4.267 4.205 3 4.5L4 7L2.5 9.5H1V15.5C2.187 16.681 4 17.743 5.274 18.232L6 21.5H10L10.444 19.5H14.556L15 21.5H19L19.534 19.099C21.3857 17.6563 22.6004 15.5472 22.9191 13.2215C23.2378 10.8958 22.6353 8.53771 21.24 6.65M9.378 3.884C10.578 3.376 11.822 3.085 13.05 3.007M17 1C18.0609 1 19.0783 1.42143 19.8284 2.17157C20.5786 2.92172 21 3.93913 21 5C21 6.06087 20.5786 7.07828 19.8284 7.82843C19.0783 8.57857 18.0609 9 17 9C15.9391 9 14.9217 8.57857 14.1716 7.82843C13.4214 7.07828 13 6.06087 13 5C13 3.93913 13.4214 2.92172 14.1716 2.17157C14.9217 1.42143 15.9391 1 17 1Z" stroke="var(--stroke-0, #0F9D58)" stroke-width="2" stroke-linecap="square"/>
<path id="Vector_3" d="M6.5 10.5H6.504V10.495H6.5V10.5Z" stroke="var(--stroke-0, #0F9D58)" stroke-width="2" stroke-linecap="square"/>
</g>
</svg>
