<svg preserveAspectRatio="none" width="100%" height="100%" overflow="visible" style="display: block;" viewBox="0 0 20 18.3964" fill="none" xmlns="http://www.w3.org/2000/svg">
<g id="Group">
<path id="Vector" d="M17 17.3964H3C2.46957 17.3964 1.96086 17.1857 1.58579 16.8107C1.21071 16.4356 1 15.9269 1 15.3964V6.39644C1 5.86601 1.21071 5.3573 1.58579 4.98223C1.96086 4.60716 2.46957 4.39644 3 4.39644H17C17.5304 4.39644 18.0391 4.60716 18.4142 4.98223C18.7893 5.3573 19 5.86601 19 6.39644V15.3964C19 15.9269 18.7893 16.4356 18.4142 16.8107C18.0391 17.1857 17.5304 17.3964 17 17.3964Z" stroke="var(--stroke-0, #0F9D58)" stroke-width="2"/>
<path id="Vector_2" d="M14.5 11.3964C14.3674 11.3964 14.2402 11.3438 14.1464 11.25C14.0527 11.1562 14 11.0291 14 10.8964C14 10.7638 14.0527 10.6367 14.1464 10.5429C14.2402 10.4491 14.3674 10.3964 14.5 10.3964C14.6326 10.3964 14.7598 10.4491 14.8536 10.5429C14.9473 10.6367 15 10.7638 15 10.8964C15 11.0291 14.9473 11.1562 14.8536 11.25C14.7598 11.3438 14.6326 11.3964 14.5 11.3964Z" fill="var(--fill-0, black)" stroke="var(--stroke-0, #0F9D58)" stroke-width="2" stroke-linecap="round" stroke-linejoin="round"/>
<path id="Vector_3" d="M16 4.39644V2.99944C15.9999 2.69295 15.9294 2.39057 15.7939 2.11566C15.6583 1.84075 15.4614 1.60067 15.2184 1.41396C14.9753 1.22724 14.6926 1.09888 14.3921 1.0388C14.0915 0.978721 13.7812 0.98852 13.485 1.06744L2.485 4.00044C2.05905 4.11395 1.68254 4.365 1.41399 4.71457C1.14544 5.06414 0.999902 5.49263 1 5.93344V6.39644" stroke="var(--stroke-0, #0F9D58)" stroke-width="2"/>
</g>
</svg>
